{"title":"Eli Stone Complete Series with Bonus Features","uid":13995274,"size":9510139724,"categoryP":"video","categoryS":"tv_shows","magnet":"?xt=urn:btih:b14974a0b0d2f32720f5c5075e04ccca0d57228e&amp;dn=Eli+Stone+Complete+Series+with+Bonus+Features&amp;tr=udp%3A%2F%2Ftracker.leechers-paradise.org%3A6969&amp;tr=udp%3A%2F%2Fzer0day.ch%3A1337&amp;tr=udp%3A%2F%2Fopen.demonii.com%3A1337&amp;tr=udp%3A%2F%2Ftracker.coppersurfer.tk%3A6969&amp;tr=udp%3A%2F%2Fexodus.desync.com%3A6969","seeders":2,"leechers":2,"uploader":"ChasVA","files":45,"time":1458736174,"description":"Eli Stone Complete Series with Bonus Features\r\n\r\n\r\n\r\nTechnical Specifications\r\n\r\nFormat : MPEG-4\r\nFormat profile : Base Media / Version 2\r\nCodec ID : mp42 (isom/iso2/avc1/mp41)\r\nOverall bit rate mode : Variable\r\nOverall bit rate : 1 162 Kbps\r\n\r\nVideo\r\n\r\nFormat : AVC\r\nFormat/Info : Advanced Video Codec\r\nFormat profile :   \r\nFormat settings, CABAC : Yes\r\nFormat settings, ReFrames : 4 frames\r\nCodec ID : avc1\r\nCodec ID/Info : Advanced Video Coding\r\nBit rate : 973 Kbps\r\nWidth : 716 pixels\r\nHeight : 476 pixels\r\nDisplay aspect ratio : 16:9\r\nFrame rate mode : Variable\r\nFrame rate : 23.976 (23976/1000) fps\r\nMinimum frame rate : 15.152 fps\r\nMaximum frame rate : 30.303 fps\r\n\r\nAudio\r\n\r\nFormat : AAC\r\nFormat/Info : Advanced Audio Codec\r\nFormat profile : LC\r\nCodec ID : 40\r\nBit rate mode : Variable\r\nBit rate : 160 Kbps\r\nChannel(s) : 2 channels\r\nChannel positions : Front: L R\r\nSampling rate : 48.0 KHz\r\nFrame rate : 46.875 fps (1024 spf)\r\nCompression mode : Lossy\r\nStream size : 45.8 MiB (14%)\r\nTitle : Stereo / Stereo\r\nLanguage : English\r\nDefault : Yes\r\n\r\nText #1\r\nID : 3\r\nFormat : mp4s\r\nCodec ID : E0\r\nBit rate mode : Variable\r\nBit rate : 7 586 bps\r\nStream size : 2.13 MiB (1%)\r\nLanguage : English\r\nDefault : Yes\r\nForced : No\r\n\r\nText #2\r\nID : 4\r\nFormat : mp4s\r\nCodec ID : E0\r\nBit rate mode : Variable\r\nBit rate : 7 079 bps\r\nStream size : 1.99 MiB (1%)\r\nLanguage : French\r\nDefault : No\r\nForced : No\r\n\r\nText #3\r\nID : 5\r\nFormat : mp4s\r\nCodec ID : E0\r\nBit rate mode : Variable\r\nBit rate : 6 999 bps\r\nStream size : 1.97 MiB (1%)\r\nLanguage : Spanish\r\nDefault : No\r\nForced : No","torrent":{"xt":"urn:btih:b14974a0b0d2f32720f5c5075e04ccca0d57228e","amp;dn":"Eli+Stone+Complete+Series+with+Bonus+Features","amp;tr":["udp%3A%2F%2Ftracker.leechers-paradise.org%3A6969","udp%3A%2F%2Fzer0day.ch%3A1337","udp%3A%2F%2Fopen.demonii.com%3A1337","udp%3A%2F%2Ftracker.coppersurfer.tk%3A6969","udp%3A%2F%2Fexodus.desync.com%3A6969"],"infoHash":"b14974a0b0d2f32720f5c5075e04ccca0d57228e","infoHashBuffer":{"type":"Buffer","data":[177,73,116,160,176,210,243,39,32,245,197,7,94,4,204,202,13,87,34,142]},"announce":[],"urlList":[]}}